<?xml version="1.0" encoding="UTF-8"?>
<svg version="1.1" xmlns="http://www.w3.org/2000/svg" width="358" height="186">
<path d="M0 0 C118.14 0 236.28 0 358 0 C358 61.38 358 122.76 358 186 C239.86 186 121.72 186 0 186 C0 124.62 0 63.24 0 0 Z " fill="#FBFBFB" transform="translate(0,0)"/>
<path d="M0 0 C5.58823529 2.23529412 5.58823529 2.23529412 8.3125 4.75 C11.31272634 7.42257849 14.40795995 9.84962668 17.63671875 12.23828125 C20.59297198 14.44203365 23.51627562 16.68769114 26.4375 18.9375 C27.00509033 19.37433105 27.57268066 19.81116211 28.1574707 20.26123047 C31.21908001 22.61998005 34.27027175 24.9913384 37.3125 27.375 C40.18882054 29.62650185 43.10149204 31.82164185 46.0390625 33.9921875 C46.76182373 34.5279541 47.48458496 35.0637207 48.22924805 35.61572266 C49.68072532 36.68992817 51.13523796 37.76004653 52.59301758 38.82568359 C53.26228271 39.32148926 53.93154785 39.81729492 54.62109375 40.328125 C55.2236499 40.7705957 55.82620605 41.21306641 56.44702148 41.66894531 C58 43 58 43 60 46 C59.01574806 46.00032605 59.01574806 46.00032605 58.01161224 46.00065869 C19.13989881 46.01416837 -19.73171061 46.05361917 -58.60335941 46.12685562 C-63.26853159 46.13562259 -67.93370413 46.14417236 -72.59887695 46.15258789 C-73.5276466 46.15426695 -74.45641624 46.15594602 -75.41333041 46.15767596 C-90.46079853 46.18436107 -105.50822856 46.19344212 -120.55571791 46.19604143 C-135.9906348 46.19909861 -151.42544139 46.221018 -166.86030847 46.26052457 C-176.38797038 46.28431442 -185.91541223 46.29331169 -195.44309977 46.28351311 C-201.97258386 46.27820598 -208.50187036 46.29118558 -215.03129818 46.3186629 C-218.80108159 46.3339833 -222.57042294 46.34112802 -226.3402195 46.32659721 C-230.42452949 46.31106443 -234.50771345 46.33398192 -238.59196472 46.36076355 C-239.78748543 46.35009029 -240.98300615 46.33941703 -242.21475476 46.32842034 C-248.6670884 46.35618452 -248.6670884 46.35618452 -254.23792267 49.34102631 C-256.47849656 52.72205104 -256.60512712 54.76729618 -256.56762695 58.80981445 C-256.56835709 59.47378738 -256.56908722 60.13776031 -256.56983948 60.82185364 C-256.56637286 63.00317852 -256.52756313 65.18233241 -256.48828125 67.36328125 C-256.47894965 68.88070001 -256.47183517 70.39813388 -256.46684265 71.91557312 C-256.44779966 75.89932225 -256.39872383 79.88215226 -256.34332275 83.86553955 C-256.29207098 87.93432177 -256.26931606 92.00325328 -256.24414062 96.07226562 C-256.19060098 104.04859773 -256.10532267 112.02418436 -256 120 C-255.401875 120.28875 -254.80375 120.5775 -254.1875 120.875 C-252 122 -252 122 -249 124 C-246.43908439 124.3120737 -246.43908439 124.3120737 -243.51411438 124.2784729 C-242.37407959 124.28963638 -241.2340448 124.30079987 -240.0594635 124.31230164 C-238.18211769 124.31554192 -238.18211769 124.31554192 -236.2668457 124.31884766 C-234.29109055 124.33391609 -234.29109055 124.33391609 -232.27542114 124.34928894 C-228.66209007 124.37662248 -225.04879806 124.39174821 -221.43539071 124.40471697 C-217.65969623 124.42033288 -213.88408168 124.44712798 -210.10844421 124.4727478 C-202.95809035 124.51956292 -195.80772149 124.55629376 -188.65729254 124.58942068 C-180.5170625 124.62762279 -172.37691269 124.67703793 -164.23675025 124.72740483 C-147.49122442 124.83076531 -130.74565412 124.92001228 -114 125 C-114 126.98 -114 128.96 -114 131 C-112.35 131 -110.7 131 -109 131 C-109 135.29 -109 139.58 -109 144 C-107.02 144 -105.04 144 -103 144 C-103 139.71 -103 135.42 -103 131 C-101.35 131 -99.7 131 -98 131 C-98 129.02 -98 127.04 -98 125 C-92.72 125 -87.44 125 -82 125 C-82 131.27 -82 137.54 -82 144 C-77.38 144 -72.76 144 -68 144 C-68 142.35 -68 140.7 -68 139 C-70.64 139 -73.28 139 -76 139 C-76 138.34 -76 137.68 -76 137 C-74.02 137 -72.04 137 -70 137 C-70 135.68 -70 134.36 -70 133 C-71.65 133 -73.3 133 -75 133 C-75 132.34 -75 131.68 -75 131 C-72.69 131 -70.38 131 -68 131 C-68 129.02 -68 127.04 -68 125 C-61.4 125 -54.8 125 -48 125 C-48.33 125.99 -48.66 126.98 -49 128 C-49.22718496 130.56634861 -49.41608184 133.11678107 -49.5625 135.6875 C-49.60568359 136.38939453 -49.64886719 137.09128906 -49.69335938 137.81445312 C-49.7991736 139.54275206 -49.90006581 141.2713511 -50 143 C-45.71 143.33 -41.42 143.66 -37 144 C-37 142.35 -37 140.7 -37 139 C-39.64 139 -42.28 139 -45 139 C-45.04241723 136.66705225 -45.04092937 134.33297433 -45 132 C-44 131 -44 131 -40.4375 130.9375 C-39.303125 130.958125 -38.16875 130.97875 -37 131 C-37.54708727 128.46255685 -37.54708727 128.46255685 -39 126 C-42.05272465 125.10169161 -42.05272465 125.10169161 -45 125 C-45 124.67 -45 124.34 -45 124 C-26.85 124 -8.7 124 10 124 C10 131.59 10 139.18 10 147 C-23.69957212 147.09048697 -57.3990988 147.1620716 -91.09876527 147.20426132 C-95.08024802 147.20926395 -99.06173051 147.21444126 -103.04321289 147.21972656 C-103.83583101 147.2207758 -104.62844912 147.22182505 -105.44508597 147.22290608 C-118.26728144 147.24029592 -131.08940494 147.27182575 -143.91155777 147.30861118 C-157.07512085 147.34606021 -170.23864632 147.36824422 -183.40226048 147.37635398 C-191.5203644 147.38183356 -199.63826486 147.3991199 -207.75630613 147.43166587 C-213.98858632 147.45537396 -220.22071243 147.45780985 -226.45303154 147.45243073 C-229.00432714 147.45352932 -231.55563059 147.46146128 -234.10688019 147.4768219 C-237.59780408 147.49680558 -241.08786665 147.49190776 -244.57881165 147.48101807 C-245.58176264 147.49266943 -246.58471363 147.5043208 -247.61805707 147.51632524 C-255.71481119 147.44833878 -263.30127542 145.78160213 -269.8671875 140.84375 C-270.52976562 140.0703125 -271.19234375 139.296875 -271.875 138.5 C-272.55304688 137.7471875 -273.23109375 136.994375 -273.9296875 136.21875 C-280.69141055 125.70618436 -281.73088355 116.02420868 -281.59375 103.88671875 C-281.59203457 102.26154164 -281.59210896 100.63636176 -281.59387207 99.01118469 C-281.59222998 95.6281945 -281.57373019 92.24587596 -281.54199219 88.86303711 C-281.50215811 84.54124418 -281.49797235 80.22032124 -281.50545502 75.89837933 C-281.50853174 72.55162169 -281.49638193 69.20505737 -281.47932434 65.85834694 C-281.47233004 64.26485214 -281.46916544 62.67133547 -281.47001648 61.07782555 C-281.46820693 58.85055622 -281.44673375 56.62430803 -281.41992188 54.3972168 C-281.41150269 53.13435349 -281.4030835 51.87149017 -281.39440918 50.57035828 C-280.77251588 44.94071782 -278.41965973 40.35826157 -275.4375 35.5625 C-274.81681641 34.54349609 -274.81681641 34.54349609 -274.18359375 33.50390625 C-273.79300781 33.00761719 -273.40242188 32.51132812 -273 32 C-272.34 32 -271.68 32 -271 32 C-270.77444522 31.4061532 -270.54889044 30.8123064 -270.31650066 30.20046425 C-267.692691 25.81489916 -263.00152461 24.11383698 -258.28467393 22.5570941 C-249.51684244 20.41914911 -239.97538369 21.23453108 -231.02416992 21.31884766 C-228.5001174 21.3205421 -225.97606192 21.31958621 -223.45201111 21.31619263 C-218.03956714 21.3148316 -212.627682 21.33171526 -207.21535301 21.36561966 C-199.39038978 21.4146053 -191.56563582 21.43003097 -183.74053589 21.43754761 C-171.0416667 21.45064463 -158.34303016 21.49047924 -145.64428711 21.54736328 C-133.31649938 21.60252784 -120.98877509 21.64495395 -108.66088867 21.67041016 C-107.89963321 21.6719865 -107.13837775 21.67356284 -106.35405394 21.67518695 C-102.53465034 21.68301778 -98.7152463 21.69059988 -94.89584196 21.69805837 C-63.26371864 21.76015036 -31.63190847 21.86739751 0 22 C0 14.74 0 7.48 0 0 Z " fill="#020202" transform="translate(291,21)"/>
<path d="M0 0 C5.21024359 -0.14970861 10.41920216 -0.25784668 15.63110352 -0.32958984 C17.39922935 -0.35953352 19.16720959 -0.40030469 20.93481445 -0.45263672 C34.16229075 -0.83409066 42.84452436 0.3792657 53.0625 9.5 C57.48610517 13.91278951 58.30100712 19.25248302 58.375 25.3125 C58.24549158 33.42527751 55.80970281 40.19029719 50 46 C42.83728699 51.20924583 36.86319222 52.89002767 28 52 C21.60319025 50.44516117 16.57975575 48.81710309 13 43 C12.50822266 42.52602783 12.01644531 42.05205566 11.50976562 41.5637207 C5.42006223 35.25638722 6.54406256 25.28842241 6.47265625 17.22460938 C6.33104926 10.85645973 5.87208908 6.97846275 1.3125 2.25 C0.879375 1.8375 0.44625 1.425 0 1 C0 0.67 0 0.34 0 0 Z " fill="#0A0A0A" transform="translate(286,80)"/>
<path d="M0 0 C6.435 -0.0928125 6.435 -0.0928125 13 -0.1875 C14.33675781 -0.21481201 15.67351562 -0.24212402 17.05078125 -0.27026367 C25.82983216 -0.33137533 32.66056896 0.31508142 39.4375 6.4375 C40.09621094 7.01371094 40.75492188 7.58992188 41.43359375 8.18359375 C43.1258374 10.14592118 43.60481812 11.46749643 44 14 C44.66 14 45.32 14 46 14 C49.08113222 20.50597639 49.02179208 28.31412539 47.5 35.29296875 C45.90785282 39.39093847 43.21387155 42.09967689 40 45 C39.4225 45.70125 38.845 46.4025 38.25 47.125 C31.08772432 53.09356307 21.75108176 52.3688098 12.9375 52.1875 C8.668125 52.125625 4.39875 52.06375 0 52 C0 34.84 0 17.68 0 0 Z " fill="#0E0E0E" transform="translate(53,80)"/>
<path d="M0 0 C7.92 -0.185625 7.92 -0.185625 16 -0.375 C18.475 -0.45693604 18.475 -0.45693604 21 -0.54052734 C28.24007417 -0.67962252 34.07542923 -0.70564781 39.70117188 4.46264648 C42.49864811 7.77386976 42.9312934 10.23048609 43.3125 14.5 C42.97532008 18.27641506 42.14892732 19.94191113 40 23 C39.31903578 24.32608822 38.64669414 25.65686601 38 27 C38.64453125 27.79664062 39.2890625 28.59328125 39.953125 29.4140625 C42.69512044 33.52705566 42.66540251 37.55294285 42.75 42.375 C42.77964844 43.20644531 42.80929687 44.03789063 42.83984375 44.89453125 C42.91000399 46.92917827 42.95732895 48.96459091 43 51 C39.37 51 35.74 51 32 51 C31.89042969 49.96359375 31.78085937 48.9271875 31.66796875 47.859375 C31.50846361 46.48950736 31.34827116 45.11971963 31.1875 43.75 C31.11724609 43.06808594 31.04699219 42.38617188 30.97460938 41.68359375 C30.34888123 36.14231539 30.34888123 36.14231539 27 32 C24.12713553 31.53844814 21.68658269 31.30616913 18.8125 31.25 C14.9453125 31.12625 14.9453125 31.12625 11 31 C11 37.6 11 44.2 11 51 C7.37 51 3.74 51 0 51 C0 34.17 0 17.34 0 0 Z " fill="#0D0D0D" transform="translate(244,81)"/>
<path d="M0 0 C9.3740625 -0.0309375 9.3740625 -0.0309375 18.9375 -0.0625 C20.91226318 -0.071604 22.88702637 -0.08070801 24.92163086 -0.09008789 C26.47770113 -0.09300705 28.03377216 -0.09555561 29.58984375 -0.09765625 C30.81290222 -0.1053302 30.81290222 -0.1053302 32.06066895 -0.11315918 C34.04080523 -0.1134694 36.02084654 -0.06238096 38 0 C39 1 39 1 39 10 C30.09 10 21.18 10 12 10 C12 13.63 12 17.26 12 21 C20.25 21 28.5 21 37 21 C37 23.97 37 26.94 37 30 C28.75 30 20.5 30 12 30 C12 33.96 12 37.92 12 42 C20.91 42 29.82 42 39 42 C39 45.3 39 48.6 39 52 C26.13 52 13.26 52 0 52 C0 34.84 0 17.68 0 0 Z " fill="#161616" transform="translate(107,80)"/>
<path d="M0 0 C86.46 0 172.92 0 262 0 C262 8.25 262 16.5 262 25 C175.21 25 88.42 25 -1 25 C-1 24.67 -1 24.34 -1 24 C85.46 24 171.92 24 261 24 C261 16.41 261 8.82 261 1 C244.83 1.33 228.66 1.66 212 2 C212.99 2.99 212.99 2.99 214 4 C214 5.32 214 6.64 214 8 C211.69 8.33 209.38 8.66 207 9 C206.67 11.31 206.34 13.62 206 16 C208.64 16 211.28 16 214 16 C214 17.65 214 19.3 214 21 C212.20841511 21.02696365 210.41671527 21.04637917 208.625 21.0625 C207.62726563 21.07410156 206.62953125 21.08570313 205.6015625 21.09765625 C203 21 203 21 201 20 C200.94602665 17.5622037 200.90634384 15.12560315 200.875 12.6875 C200.85824219 11.99720703 200.84148437 11.30691406 200.82421875 10.59570312 C200.78782206 6.82864604 200.85621136 5.21568296 203 2 C196.4 2 189.8 2 183 2 C183 3.98 183 5.96 183 8 C180.69 8 178.38 8 176 8 C176 8.66 176 9.32 176 10 C177.65 10 179.3 10 181 10 C181 11.32 181 12.64 181 14 C179.02 14 177.04 14 175 14 C175 14.66 175 15.32 175 16 C177.64 16 180.28 16 183 16 C183 17.65 183 19.3 183 21 C178.38 21 173.76 21 169 21 C169 14.73 169 8.46 169 2 C163.72 2 158.44 2 153 2 C153 3.98 153 5.96 153 8 C151.35 8 149.7 8 148 8 C148 12.29 148 16.58 148 21 C146.02 21 144.04 21 142 21 C142 16.71 142 12.42 142 8 C140.35 8 138.7 8 137 8 C137 6.02 137 4.04 137 2 C135.95913459 2.00276538 135.95913459 2.00276538 134.89724159 2.00558662 C118.0308969 2.04971084 101.16457043 2.08282981 84.29818153 2.10362434 C76.14180049 2.11394711 67.98545792 2.12802647 59.82910156 2.15087891 C52.72194277 2.17078225 45.61481183 2.18370916 38.50762594 2.18817699 C34.74268546 2.19078957 30.97782469 2.19695087 27.2129097 2.21146011 C23.01511311 2.22750712 18.81745604 2.22798166 14.61962891 2.22705078 C13.36446976 2.23424133 12.10931061 2.24143188 10.81611633 2.24884033 C9.67745621 2.246091 8.53879608 2.24334167 7.3656311 2.24050903 C6.37193827 2.24235262 5.37824543 2.24419621 4.35444069 2.24609566 C2 2 2 2 0 0 Z " fill="#5B5B5B" transform="translate(40,144)"/>
<path d="M0 0 C0.79019531 -0.01611328 1.58039063 -0.03222656 2.39453125 -0.04882812 C8.13754134 -0.053606 12.49413409 0.78564507 16.8046875 4.92578125 C17.39636719 5.76689453 17.39636719 5.76689453 18 6.625 C18.40992188 7.17800781 18.81984375 7.73101562 19.2421875 8.30078125 C20.125 10.3125 20.125 10.3125 20.125 16.3125 C16.165 16.3125 12.205 16.3125 8.125 16.3125 C7.465 14.6625 6.805 13.0125 6.125 11.3125 C3.7853331 10.14266655 2.29108473 10.1463759 -0.3125 10.125 C-1.09496094 10.11082031 -1.87742188 10.09664062 -2.68359375 10.08203125 C-5.16705987 10.17163936 -5.16705987 10.17163936 -7.875 12.3125 C-8.12530977 14.89630177 -8.12530977 14.89630177 -7.875 17.3125 C-2.53614423 19.63939068 2.60423197 21.4853805 8.3125 22.6875 C13.81089153 23.96998565 17.43527155 26.02572811 21.125 30.3125 C22.87248368 33.80746736 22.54536893 37.49153465 22.125 41.3125 C20.33232066 46.20162548 18.37879161 48.54890783 13.9375 51.25 C6.87463269 54.37858863 -1.3220985 54.8234543 -8.875 53.3125 C-13.55424751 51.24034226 -17.38396159 48.70564002 -20.12109375 44.3125 C-21.25045444 41.31647579 -20.99669639 38.47660612 -20.875 35.3125 C-17.245 35.3125 -13.615 35.3125 -9.875 35.3125 C-9.194375 37.0140625 -9.194375 37.0140625 -8.5 38.75 C-7.30404194 42.35971692 -7.30404194 42.35971692 -4.875 43.3125 C-3.25334248 43.43398305 -1.62615673 43.48793652 0 43.5 C0.86367187 43.51417969 1.72734375 43.52835938 2.6171875 43.54296875 C5.2491288 43.30109252 6.86480544 42.64233541 9.125 41.3125 C9.33470559 37.17156302 9.33470559 37.17156302 8.125 33.3125 C6.31203385 32.69157282 6.31203385 32.69157282 4.125 32.3125 C3.320625 32.1475 2.51625 31.9825 1.6875 31.8125 C0.841875 31.6475 -0.00375 31.4825 -0.875 31.3125 C-2.54321323 30.98699498 -4.20999557 30.65403937 -5.875 30.3125 C-6.6175 30.168125 -7.36 30.02375 -8.125 29.875 C-8.7025 29.689375 -9.28 29.50375 -9.875 29.3125 C-10.205 28.6525 -10.535 27.9925 -10.875 27.3125 C-11.638125 27.065 -12.40125 26.8175 -13.1875 26.5625 C-16.94976578 24.81260894 -18.05307191 23.02383499 -19.875 19.3125 C-20.62031044 16.11239722 -20.68789959 13.5048805 -19.875 10.3125 C-14.62576321 1.94518796 -9.45238821 -0.03817604 0 0 Z " fill="#111111" transform="translate(171.875,79.6875)"/>
<path d="M0 0 C13.86 0 27.72 0 42 0 C42 2.97 42 5.94 42 9 C37.05 9 32.1 9 27 9 C27 22.86 27 36.72 27 51 C23.04 51 19.08 51 15 51 C15 37.14 15 23.28 15 9 C10.05 9 5.1 9 0 9 C0 6.03 0 3.06 0 0 Z " fill="#111111" transform="translate(196,81)"/>
<path d="M0 0 C2.56791177 -0.04570778 5.135002 -0.07910685 7.703125 -0.10546875 C8.78811279 -0.12667786 8.78811279 -0.12667786 9.89501953 -0.14831543 C15.85804317 -0.19421099 19.17125745 0.56416395 24 4 C28.21034258 8.53421508 29.38256237 11.4934338 29.265625 17.5546875 C28.72190907 22.5600724 26.96412137 26.18560986 23.2578125 29.609375 C16.50388849 34.14597301 8.82413961 33.69858389 1 33 C0 32 0 32 -0.11352539 28.94897461 C-0.11336634 27.60008729 -0.10767612 26.25119386 -0.09765625 24.90234375 C-0.0962413 24.19348526 -0.09482635 23.48462677 -0.09336853 22.75428772 C-0.08775443 20.48198288 -0.07519963 18.20977525 -0.0625 15.9375 C-0.05748681 14.40039204 -0.05292359 12.86328255 -0.04882812 11.32617188 C-0.03778042 7.55074358 -0.02050641 3.77538829 0 0 Z " fill="#F1F1F1" transform="translate(62,90)"/>
<path d="M0 0 C2.70842036 2.06695238 3.49493222 3.55624923 4.375 6.8125 C5.035 6.8125 5.695 6.8125 6.375 6.8125 C7.61877393 9.30004786 7.50806235 11.03905301 7.5 13.8125 C7.50386719 15.1428125 7.50386719 15.1428125 7.5078125 16.5 C7.375 18.8125 7.375 18.8125 6.375 20.8125 C5.715 20.8125 5.055 20.8125 4.375 20.8125 C4.26800781 21.41578125 4.16101563 22.0190625 4.05078125 22.640625 C3.11111943 25.66057858 1.25426348 27.10465242 -1.33203125 28.81640625 C-5.99401036 30.84162716 -10.6935495 30.76805206 -15.625 29.8125 C-19.96183529 27.4790125 -22.75926678 24.36454355 -24.625 19.8125 C-25.67768791 13.41068863 -24.36073986 7.14315458 -20.625 1.8125 C-14.56968444 -2.80701909 -6.98597068 -2.28850764 0 0 Z " fill="#F7F7F7" transform="translate(327.625,92.1875)"/>
<path d="M0 0 C2.77186988 -0.10787818 5.53955537 -0.18723327 8.3125 -0.25 C9.09818359 -0.28351563 9.88386719 -0.31703125 10.69335938 -0.3515625 C16.49486788 -0.45031158 16.49486788 -0.45031158 19.015625 1.796875 C20.47430186 5.06153274 20.44097891 7.47216875 20 11 C18.48828125 13.203125 18.48828125 13.203125 16 15 C13.10550051 15.2906124 10.62050065 15.38186045 7.75 15.25 C6.63238281 15.22292969 6.63238281 15.22292969 5.4921875 15.1953125 C3.66090299 15.14835649 1.83028351 15.07661652 0 15 C0 10.05 0 5.1 0 0 Z " fill="#E9E9E9" transform="translate(255,89)"/>
<path d="M0 0 C1.65 0 3.3 0 5 0 C5 5.94 5 11.88 5 18 C3.35 18 1.7 18 0 18 C0 16.02 0 14.04 0 12 C-1.32 12 -2.64 12 -4 12 C-4 13.98 -4 15.96 -4 18 C-5.98 18 -7.96 18 -10 18 C-10 12.39 -10 6.78 -10 1 C-8.35 1 -6.7 1 -5 1 C-5 2.98 -5 4.96 -5 7 C-3.35 7 -1.7 7 0 7 C0 4.69 0 2.38 0 0 Z " fill="#DFDFDF" transform="translate(281,147)"/>
<path d="M0 0 C4.29 0 8.58 0 13 0 C13 1.65 13 3.3 13 5 C10.69 5 8.38 5 6 5 C6 5.66 6 6.32 6 7 C7.65 7 9.3 7 11 7 C11 8.32 11 9.64 11 11 C9.02 11 7.04 11 5 11 C5 11.66 5 12.32 5 13 C7.64 13 10.28 13 13 13 C13 14.65 13 16.3 13 18 C11.02090602 18.02686553 9.04171029 18.04633375 7.0625 18.0625 C5.96035156 18.07410156 4.85820312 18.08570313 3.72265625 18.09765625 C1 18 1 18 0 17 C-0.07325168 14.13732433 -0.09238205 11.299281 -0.0625 8.4375 C-0.05798828 7.63119141 -0.05347656 6.82488281 -0.04882812 5.99414062 C-0.03700518 3.99606244 -0.01906914 1.99802217 0 0 Z " fill="#D8D8D8" transform="translate(210,147)"/>
<path d="M0 0 C1.65322266 0.01740234 1.65322266 0.01740234 3.33984375 0.03515625 C4.99693359 0.04869141 4.99693359 0.04869141 6.6875 0.0625 C7.54214844 0.07410156 8.39679688 0.08570313 9.27734375 0.09765625 C9.27734375 1.41765625 9.27734375 2.73765625 9.27734375 4.09765625 C6.96734375 4.42765625 4.65734375 4.75765625 2.27734375 5.09765625 C1.94734375 7.40765625 1.61734375 9.71765625 1.27734375 12.09765625 C3.91734375 12.09765625 6.55734375 12.09765625 9.27734375 12.09765625 C9.27734375 13.74765625 9.27734375 15.39765625 9.27734375 17.09765625 C7.48575886 17.1246199 5.69405902 17.14403542 3.90234375 17.16015625 C2.90460938 17.17175781 1.906875 17.18335938 0.87890625 17.1953125 C-1.72265625 17.09765625 -1.72265625 17.09765625 -3.72265625 16.09765625 C-3.7495072 13.61841824 -3.76942172 11.13946785 -3.78515625 8.66015625 C-3.79772461 7.59958008 -3.79772461 7.59958008 -3.81054688 6.51757812 C-3.81919213 4.71072066 -3.77485636 2.90378022 -3.72265625 1.09765625 C-2.72265625 0.09765625 -2.72265625 0.09765625 0 0 Z " fill="#D9D9D9" transform="translate(244.72265625,147.90234375)"/>
<path d="M0 0 C4.62 0 9.24 0 14 0 C14.33 1.65 14.66 3.3 15 5 C13.35 5 11.7 5 10 5 C10 9.29 10 13.58 10 18 C8.02 18 6.04 18 4 18 C4 13.71 4 9.42 4 5 C2.68 5 1.36 5 0 5 C0 3.35 0 1.7 0 0 Z " fill="#E3E3E3" transform="translate(178,147)"/>
<path d="M0 0 C-1.875 3.875 -1.875 3.875 -3 5 C-3.12391682 7.11605096 -3.17799906 9.23621283 -3.20532227 11.35571289 C-3.21522186 12.01910172 -3.22512146 12.68249054 -3.23532104 13.36598206 C-3.26701737 15.56816995 -3.29172534 17.77037945 -3.31640625 19.97265625 C-3.33696878 21.49580968 -3.35796505 23.01895731 -3.37937927 24.542099 C-3.43467247 28.55831214 -3.48404963 32.57457738 -3.53222656 36.59088135 C-3.58238882 40.68628599 -3.63810236 44.78161461 -3.69335938 48.87695312 C-3.80102954 56.91790455 -3.90245467 64.95891941 -4 73 C-6.35567979 69.46648031 -6.26234471 67.96031356 -6.29052734 63.77197266 C-6.30328705 62.48698883 -6.31604675 61.202005 -6.32919312 59.87808228 C-6.33225074 58.47341055 -6.33447852 57.0687368 -6.3359375 55.6640625 C-6.34236504 54.22301094 -6.34909336 52.78196068 -6.35610962 51.34091187 C-6.36808562 48.31969173 -6.37179016 45.29858595 -6.37060547 42.27734375 C-6.37040235 38.41128026 -6.39769461 34.54595247 -6.43214989 30.68006325 C-6.45442026 27.7031418 -6.45844297 24.72639731 -6.45738602 21.74940109 C-6.45974216 20.32447145 -6.46856658 18.89953694 -6.48405075 17.47468948 C-6.50370784 15.4788285 -6.49535089 13.48275153 -6.48583984 11.48681641 C-6.48868988 10.35225006 -6.49153992 9.21768372 -6.49447632 8.04873657 C-5.89171594 4.33236526 -4.29481368 0 0 0 Z " fill="#ACACAC" transform="translate(40,68)"/>
<path d="M0 0 C9.57 0 19.14 0 29 0 C29 7.59 29 15.18 29 23 C28.67 23 28.34 23 28 23 C28 15.74 28 8.48 28 1 C23.71 1 19.42 1 15 1 C15 7.27 15 13.54 15 20 C14.67 20 14.34 20 14 20 C14 14.06 14 8.12 14 2 C12.35 2 10.7 2 9 2 C9 4.31 9 6.62 9 9 C7.35 9 5.7 9 4 9 C4 7.02 4 5.04 4 3 C2.68 3 1.36 3 0 3 C0 2.01 0 1.02 0 0 Z " fill="#2D2D2D" transform="translate(272,145)"/>
<path d="M0 0 C7.41981066 -0.05081865 14.83957621 -0.0857835 22.25952148 -0.10986328 C24.78232501 -0.11990461 27.30511694 -0.13354032 29.82788086 -0.15087891 C33.45950181 -0.17520898 37.09096851 -0.18650202 40.72265625 -0.1953125 C41.84583755 -0.20563507 42.96901886 -0.21595764 44.12623596 -0.22659302 C49.82027635 -0.22740405 54.62918144 0.05857841 60 2 C60 2.33 60 2.66 60 3 C56.7 3 53.4 3 50 3 C50 2.34 50 1.68 50 1 C48.06060547 1.10828125 48.06060547 1.10828125 46.08203125 1.21875 C36.36997541 1.74324589 26.72834454 2.11581363 17 2 C17.33 7.94 17.66 13.88 18 20 C17.34 20 16.68 20 16 20 C16 13.73 16 7.46 16 1 C10.72 1 5.44 1 0 1 C0 0.67 0 0.34 0 0 Z " fill="#232323" transform="translate(193,145)"/>
<path d="M0 0 C5.37514905 -0.04935509 10.75016685 -0.08569802 16.12548828 -0.10986328 C17.95493873 -0.11993484 19.78437303 -0.13359276 21.61376953 -0.15087891 C24.23994934 -0.17507677 26.86591675 -0.18647132 29.4921875 -0.1953125 C30.72350906 -0.21079636 30.72350906 -0.21079636 31.97970581 -0.22659302 C33.98789142 -0.22699184 35.99555382 -0.1224954 38 0 C38.66 0.66 39.32 1.32 40 2 C38.95021973 2.02505615 37.90043945 2.0501123 36.81884766 2.07592773 C32.93118676 2.16996267 29.04370619 2.2701928 25.15625 2.37231445 C23.47237358 2.41567817 21.78845277 2.4573522 20.10449219 2.49731445 C17.68671276 2.55498234 15.26915705 2.6186865 12.8515625 2.68359375 C11.71867294 2.70866249 11.71867294 2.70866249 10.56289673 2.73423767 C6.65260201 2.77555107 6.65260201 2.77555107 3 4 C1.97895449 3.02149805 0.9793879 2.02019573 0 1 C0 0.67 0 0.34 0 0 Z " fill="#494949" transform="translate(286,80)"/>
<path d="M0 0 C4.62 0 9.24 0 14 0 C14.33 1.65 14.66 3.3 15 5 C13.35 5 11.7 5 10 5 C10.99 4.67 11.98 4.34 13 4 C13 3.34 13 2.68 13 2 C9.04 2 5.08 2 1 2 C1 2.66 1 3.32 1 4 C1.99 4.33 2.98 4.66 4 5 C2.68 5 1.36 5 0 5 C0 3.35 0 1.7 0 0 Z " fill="#ADADAD" transform="translate(178,147)"/>
<path d="M0 0 C3.85410207 -0.05847045 7.70808865 -0.09375405 11.5625 -0.125 C12.64853516 -0.14175781 13.73457031 -0.15851563 14.85351562 -0.17578125 C20.64479442 -0.21098659 25.54134642 0.01076326 31 2 C31 2.33 31 2.66 31 3 C27.7 3 24.4 3 21 3 C21 2.34 21 1.68 21 1 C10.605 1.495 10.605 1.495 0 2 C0 1.34 0 0.68 0 0 Z " fill="#292929" transform="translate(222,145)"/>
<path d="M0 0 C-1.49097658 3.7952131 -3.75700849 5.61042731 -7 8 C-6.44414399 4.1090079 -4.34122117 0 0 0 Z " fill="#D4D4D4" transform="translate(312,92)"/>
</svg>
